<?xml version="1.0" standalone="no"?>
<!DOCTYPE svg PUBLIC "-//W3C//DTD SVG 20010904//EN"
 "http://www.w3.org/TR/2001/REC-SVG-20010904/DTD/svg10.dtd">
<svg version="1.0" xmlns="http://www.w3.org/2000/svg"
 width="3000.000000pt" height="3000.000000pt" viewBox="0 0 3000.000000 3000.000000"
 preserveAspectRatio="xMidYMid meet">

<g transform="translate(0.000000,3000.000000) scale(0.100000,-0.100000)"
fill="#000000" stroke="none">
<path d="M17239 27743 c-307 -315 -518 -631 -858 -1283 -144 -275 -202 -362
-320 -481 -132 -132 -240 -192 -438 -241 -127 -32 -456 -32 -652 0 -103 17
-137 19 -148 10 -8 -6 -13 -7 -11 -2 1 5 -6 21 -16 37 -40 60 -32 122 28 222
14 22 32 54 40 70 73 138 131 229 165 259 17 15 19 22 9 28 -8 6 28 7 90 3 56
-4 102 -3 102 2 0 5 -37 23 -82 41 l-83 32 -202 0 c-225 0 -380 -16 -543 -56
-292 -72 -524 -197 -710 -383 -114 -114 -176 -199 -247 -339 -133 -262 -193
-564 -193 -972 0 -312 25 -546 96 -900 97 -488 223 -840 394 -1104 l62 -95
104 -56 c110 -59 138 -66 106 -25 -52 67 -160 230 -152 230 6 0 10 7 10 16 0
23 155 179 220 221 30 19 81 53 114 75 81 55 149 79 206 76 l48 -3 6 -51 c10
-84 54 -222 106 -331 86 -181 248 -403 464 -638 427 -463 646 -815 671 -1077
l7 -63 -64 -80 c-275 -343 -591 -610 -1010 -851 -73 -43 -306 -164 -518 -269
-1017 -508 -1154 -590 -2085 -1255 -1127 -805 -1639 -1114 -2261 -1365 -635
-257 -1311 -361 -2114 -325 -430 18 -1047 24 -1197 11 -178 -16 -374 -49 -387
-65 -6 -7 -36 -29 -66 -49 -85 -55 -168 -135 -324 -311 -192 -217 -309 -326
-446 -418 -179 -120 -346 -190 -625 -261 -131 -34 -411 -90 -587 -118 -43 -6
-84 -17 -91 -23 -13 -11 -498 -2099 -497 -2141 0 -15 89 -77 371 -260 l371
-240 34 -67 c232 -460 297 -1133 178 -1848 -79 -479 -193 -856 -544 -1800
-351 -945 -454 -1310 -546 -1920 -38 -254 -44 -356 -50 -952 -5 -408 -3 -538
6 -538 6 0 50 11 98 25 206 59 516 90 802 82 155 -5 211 -10 275 -27 44 -12
121 -26 170 -30 50 -5 144 -24 211 -43 531 -155 1002 -482 1217 -846 49 -81
107 -224 107 -261 0 -13 9 -22 26 -26 33 -8 256 14 729 71 730 89 946 108
1406 126 674 27 1669 -50 2225 -172 893 -195 1418 -440 1801 -843 260 -272
418 -544 630 -1086 35 -91 90 -225 121 -299 l57 -133 35 5 c19 3 1066 233
2325 511 1928 427 2303 513 2375 543 156 66 643 310 805 403 960 550 1419
1125 1564 1960 50 283 62 547 36 758 -36 292 -98 465 -209 589 -42 46 -50 51
-102 57 -32 4 -63 11 -70 17 -9 7 -28 2 -66 -17 -82 -42 -208 -81 -320 -100
-473 -79 -843 213 -1095 866 -111 287 -202 708 -219 1020 -15 255 44 493 180
733 25 42 41 77 36 77 -10 0 -117 -86 -122 -98 -4 -10 -126 -42 -293 -76 -179
-36 -176 -36 -171 -17 3 9 12 54 21 101 10 47 21 88 26 91 5 3 13 36 18 75 10
77 78 353 91 369 4 5 11 28 15 50 9 56 45 174 127 425 284 864 692 1707 1112
2298 463 651 903 973 1394 1022 216 22 377 -8 790 -144 421 -139 598 -179 858
-195 583 -36 1137 149 1829 612 193 129 285 200 693 530 26 20 58 45 72 55 35
24 307 287 534 516 757 765 1367 1599 1625 2220 38 91 41 105 41 191 0 275
-136 618 -384 965 -192 270 -445 563 -962 1115 -455 487 -735 814 -989 1155
-928 1248 -1214 2493 -990 4305 53 425 228 1378 256 1396 7 4 11 10 9 13 -24
23 -1112 35 -1505 16 -661 -32 -1019 -69 -2239 -231 -931 -123 -1208 -151
-1692 -171 -409 -16 -740 -2 -956 43 -431 88 -602 203 -638 427 -17 100 5 224
67 390 27 75 59 128 156 267 185 264 242 346 245 356 11 28 -27 -4 -129 -108z
m6595 -1061 c3 -5 -8 -6 -25 -4 -16 2 -29 6 -29 8 0 8 49 4 54 -4z"/>
</g>
</svg>
